<svg xmlns="http://www.w3.org/2000/svg" width="500" zoomAndPan="magnify" viewBox="0 0 375 374.999991" height="500" preserveAspectRatio="xMidYMid meet" version="1.0"><defs><g/><clipPath id="8ff805c18b"><path d="M 187.5 0 C 83.945312 0 0 83.945312 0 187.5 C 0 291.054688 83.945312 375 187.5 375 C 291.054688 375 375 291.054688 375 187.5 C 375 83.945312 291.054688 0 187.5 0 Z M 187.5 0 " clip-rule="nonzero"/></clipPath><linearGradient x1="-0" gradientTransform="matrix(1.464844, 0, 0, 1.464844, 0.0000045, 0)" y1="128" x2="255.999988" gradientUnits="userSpaceOnUse" y2="128" id="1acfb07c92"><stop stop-opacity="1" stop-color="rgb(0%, 28.999329%, 67.799377%)" offset="0"/><stop stop-opacity="1" stop-color="rgb(0.309753%, 29.051208%, 67.886353%)" offset="0.00390625"/><stop stop-opacity="1" stop-color="rgb(0.621033%, 29.104614%, 67.974854%)" offset="0.0078125"/><stop stop-opacity="1" stop-color="rgb(0.932312%, 29.156494%, 68.061829%)" offset="0.0117188"/><stop stop-opacity="1" stop-color="rgb(1.243591%, 29.208374%, 68.148804%)" offset="0.015625"/><stop stop-opacity="1" stop-color="rgb(1.553345%, 29.260254%, 68.235779%)" offset="0.0195312"/><stop stop-opacity="1" stop-color="rgb(1.864624%, 29.31366%, 68.32428%)" offset="0.0234375"/><stop stop-opacity="1" stop-color="rgb(2.175903%, 29.36554%, 68.411255%)" offset="0.0273438"/><stop stop-opacity="1" stop-color="rgb(2.487183%, 29.417419%, 68.499756%)" offset="0.03125"/><stop stop-opacity="1" stop-color="rgb(2.796936%, 29.469299%, 68.586731%)" offset="0.0351562"/><stop stop-opacity="1" stop-color="rgb(3.108215%, 29.522705%, 68.673706%)" offset="0.0390625"/><stop stop-opacity="1" stop-color="rgb(3.419495%, 29.574585%, 68.760681%)" offset="0.0429688"/><stop stop-opacity="1" stop-color="rgb(3.730774%, 29.627991%, 68.849182%)" offset="0.046875"/><stop stop-opacity="1" stop-color="rgb(4.040527%, 29.679871%, 68.936157%)" offset="0.0507812"/><stop stop-opacity="1" stop-color="rgb(4.351807%, 29.73175%, 69.024658%)" offset="0.0546875"/><stop stop-opacity="1" stop-color="rgb(4.663086%, 29.78363%, 69.111633%)" offset="0.0585938"/><stop stop-opacity="1" stop-color="rgb(4.974365%, 29.837036%, 69.198608%)" offset="0.0625"/><stop stop-opacity="1" stop-color="rgb(5.284119%, 29.888916%, 69.285583%)" offset="0.0664062"/><stop stop-opacity="1" stop-color="rgb(5.595398%, 29.940796%, 69.374084%)" offset="0.0703125"/><stop stop-opacity="1" stop-color="rgb(5.906677%, 29.992676%, 69.46106%)" offset="0.0742188"/><stop stop-opacity="1" stop-color="rgb(6.217957%, 30.046082%, 69.549561%)" offset="0.078125"/><stop stop-opacity="1" stop-color="rgb(6.529236%, 30.097961%, 69.636536%)" offset="0.0820313"/><stop stop-opacity="1" stop-color="rgb(6.840515%, 30.151367%, 69.723511%)" offset="0.0859375"/><stop stop-opacity="1" stop-color="rgb(7.150269%, 30.203247%, 69.810486%)" offset="0.0898438"/><stop stop-opacity="1" stop-color="rgb(7.461548%, 30.255127%, 69.898987%)" offset="0.09375"/><stop stop-opacity="1" stop-color="rgb(7.772827%, 30.307007%, 69.985962%)" offset="0.0976563"/><stop stop-opacity="1" stop-color="rgb(8.084106%, 30.360413%, 70.074463%)" offset="0.101562"/><stop stop-opacity="1" stop-color="rgb(8.39386%, 30.412292%, 70.161438%)" offset="0.105469"/><stop stop-opacity="1" stop-color="rgb(8.705139%, 30.464172%, 70.249939%)" offset="0.109375"/><stop stop-opacity="1" stop-color="rgb(9.016418%, 30.516052%, 70.336914%)" offset="0.113281"/><stop stop-opacity="1" stop-color="rgb(9.327698%, 30.569458%, 70.423889%)" offset="0.117188"/><stop stop-opacity="1" stop-color="rgb(9.637451%, 30.621338%, 70.510864%)" offset="0.121094"/><stop stop-opacity="1" stop-color="rgb(9.94873%, 30.674744%, 70.599365%)" offset="0.125"/><stop stop-opacity="1" stop-color="rgb(10.26001%, 30.726624%, 70.68634%)" offset="0.128906"/><stop stop-opacity="1" stop-color="rgb(10.571289%, 30.778503%, 70.774841%)" offset="0.132812"/><stop stop-opacity="1" stop-color="rgb(10.881042%, 30.830383%, 70.861816%)" offset="0.136719"/><stop stop-opacity="1" stop-color="rgb(11.192322%, 30.883789%, 70.948792%)" offset="0.140625"/><stop stop-opacity="1" stop-color="rgb(11.503601%, 30.935669%, 71.035767%)" offset="0.144531"/><stop stop-opacity="1" stop-color="rgb(11.81488%, 30.987549%, 71.124268%)" offset="0.148438"/><stop stop-opacity="1" stop-color="rgb(12.12616%, 31.039429%, 71.211243%)" offset="0.152344"/><stop stop-opacity="1" stop-color="rgb(12.437439%, 31.092834%, 71.299744%)" offset="0.15625"/><stop stop-opacity="1" stop-color="rgb(12.747192%, 31.144714%, 71.386719%)" offset="0.160156"/><stop stop-opacity="1" stop-color="rgb(13.058472%, 31.19812%, 71.473694%)" offset="0.164063"/><stop stop-opacity="1" stop-color="rgb(13.369751%, 31.25%, 71.560669%)" offset="0.167969"/><stop stop-opacity="1" stop-color="rgb(13.68103%, 31.30188%, 71.64917%)" offset="0.171875"/><stop stop-opacity="1" stop-color="rgb(13.990784%, 31.35376%, 71.736145%)" offset="0.175781"/><stop stop-opacity="1" stop-color="rgb(14.302063%, 31.407166%, 71.824646%)" offset="0.179688"/><stop stop-opacity="1" stop-color="rgb(14.613342%, 31.459045%, 71.911621%)" offset="0.183594"/><stop stop-opacity="1" stop-color="rgb(14.924622%, 31.512451%, 71.998596%)" offset="0.1875"/><stop stop-opacity="1" stop-color="rgb(15.234375%, 31.564331%, 72.085571%)" offset="0.191406"/><stop stop-opacity="1" stop-color="rgb(15.545654%, 31.616211%, 72.174072%)" offset="0.195313"/><stop stop-opacity="1" stop-color="rgb(15.856934%, 31.668091%, 72.261047%)" offset="0.199219"/><stop stop-opacity="1" stop-color="rgb(16.168213%, 31.721497%, 72.349548%)" offset="0.203125"/><stop stop-opacity="1" stop-color="rgb(16.477966%, 31.773376%, 72.436523%)" offset="0.207031"/><stop stop-opacity="1" stop-color="rgb(16.789246%, 31.825256%, 72.523499%)" offset="0.210938"/><stop stop-opacity="1" stop-color="rgb(17.100525%, 31.877136%, 72.610474%)" offset="0.214844"/><stop stop-opacity="1" stop-color="rgb(17.411804%, 31.930542%, 72.698975%)" offset="0.21875"/><stop stop-opacity="1" stop-color="rgb(17.723083%, 31.982422%, 72.78595%)" offset="0.222656"/><stop stop-opacity="1" stop-color="rgb(18.034363%, 32.035828%, 72.874451%)" offset="0.226563"/><stop stop-opacity="1" stop-color="rgb(18.344116%, 32.087708%, 72.961426%)" offset="0.230469"/><stop stop-opacity="1" stop-color="rgb(18.655396%, 32.139587%, 73.049927%)" offset="0.234375"/><stop stop-opacity="1" stop-color="rgb(18.966675%, 32.191467%, 73.136902%)" offset="0.238281"/><stop stop-opacity="1" stop-color="rgb(19.277954%, 32.244873%, 73.223877%)" offset="0.242188"/><stop stop-opacity="1" stop-color="rgb(19.587708%, 32.296753%, 73.310852%)" offset="0.246094"/><stop stop-opacity="1" stop-color="rgb(19.898987%, 32.348633%, 73.399353%)" offset="0.25"/><stop stop-opacity="1" stop-color="rgb(20.210266%, 32.400513%, 73.486328%)" offset="0.253906"/><stop stop-opacity="1" stop-color="rgb(20.521545%, 32.453918%, 73.574829%)" offset="0.257812"/><stop stop-opacity="1" stop-color="rgb(20.831299%, 32.505798%, 73.661804%)" offset="0.261719"/><stop stop-opacity="1" stop-color="rgb(21.142578%, 32.559204%, 73.748779%)" offset="0.265625"/><stop stop-opacity="1" stop-color="rgb(21.453857%, 32.611084%, 73.835754%)" offset="0.269531"/><stop stop-opacity="1" stop-color="rgb(21.765137%, 32.662964%, 73.924255%)" offset="0.273438"/><stop stop-opacity="1" stop-color="rgb(22.07489%, 32.714844%, 74.01123%)" offset="0.277344"/><stop stop-opacity="1" stop-color="rgb(22.386169%, 32.76825%, 74.099731%)" offset="0.28125"/><stop stop-opacity="1" stop-color="rgb(22.697449%, 32.820129%, 74.186707%)" offset="0.285156"/><stop stop-opacity="1" stop-color="rgb(23.008728%, 32.872009%, 74.273682%)" offset="0.289062"/><stop stop-opacity="1" stop-color="rgb(23.318481%, 32.923889%, 74.360657%)" offset="0.292969"/><stop stop-opacity="1" stop-color="rgb(23.629761%, 32.977295%, 74.449158%)" offset="0.296875"/><stop stop-opacity="1" stop-color="rgb(23.94104%, 33.029175%, 74.536133%)" offset="0.300781"/><stop stop-opacity="1" stop-color="rgb(24.252319%, 33.082581%, 74.624634%)" offset="0.304688"/><stop stop-opacity="1" stop-color="rgb(24.563599%, 33.13446%, 74.711609%)" offset="0.308594"/><stop stop-opacity="1" stop-color="rgb(24.874878%, 33.18634%, 74.798584%)" offset="0.3125"/><stop stop-opacity="1" stop-color="rgb(25.184631%, 33.23822%, 74.885559%)" offset="0.316406"/><stop stop-opacity="1" stop-color="rgb(25.495911%, 33.291626%, 74.97406%)" offset="0.320312"/><stop stop-opacity="1" stop-color="rgb(25.80719%, 33.343506%, 75.061035%)" offset="0.324219"/><stop stop-opacity="1" stop-color="rgb(26.118469%, 33.395386%, 75.149536%)" offset="0.328125"/><stop stop-opacity="1" stop-color="rgb(26.428223%, 33.447266%, 75.236511%)" offset="0.332031"/><stop stop-opacity="1" stop-color="rgb(26.739502%, 33.500671%, 75.323486%)" offset="0.335938"/><stop stop-opacity="1" stop-color="rgb(27.050781%, 33.552551%, 75.410461%)" offset="0.339844"/><stop stop-opacity="1" stop-color="rgb(27.362061%, 33.605957%, 75.498962%)" offset="0.34375"/><stop stop-opacity="1" stop-color="rgb(27.671814%, 33.657837%, 75.585938%)" offset="0.347656"/><stop stop-opacity="1" stop-color="rgb(27.983093%, 33.709717%, 75.674438%)" offset="0.351562"/><stop stop-opacity="1" stop-color="rgb(28.294373%, 33.761597%, 75.761414%)" offset="0.355469"/><stop stop-opacity="1" stop-color="rgb(28.605652%, 33.815002%, 75.849915%)" offset="0.359375"/><stop stop-opacity="1" stop-color="rgb(28.915405%, 33.866882%, 75.93689%)" offset="0.363281"/><stop stop-opacity="1" stop-color="rgb(29.226685%, 33.920288%, 76.023865%)" offset="0.367188"/><stop stop-opacity="1" stop-color="rgb(29.537964%, 33.972168%, 76.11084%)" offset="0.371094"/><stop stop-opacity="1" stop-color="rgb(29.849243%, 34.024048%, 76.199341%)" offset="0.375"/><stop stop-opacity="1" stop-color="rgb(30.160522%, 34.075928%, 76.286316%)" offset="0.378906"/><stop stop-opacity="1" stop-color="rgb(30.471802%, 34.129333%, 76.374817%)" offset="0.382812"/><stop stop-opacity="1" stop-color="rgb(30.781555%, 34.181213%, 76.461792%)" offset="0.386719"/><stop stop-opacity="1" stop-color="rgb(31.092834%, 34.233093%, 76.548767%)" offset="0.390625"/><stop stop-opacity="1" stop-color="rgb(31.404114%, 34.284973%, 76.635742%)" offset="0.394531"/><stop stop-opacity="1" stop-color="rgb(31.715393%, 34.338379%, 76.724243%)" offset="0.398438"/><stop stop-opacity="1" stop-color="rgb(32.025146%, 34.390259%, 76.811218%)" offset="0.402344"/><stop stop-opacity="1" stop-color="rgb(32.336426%, 34.443665%, 76.899719%)" offset="0.40625"/><stop stop-opacity="1" stop-color="rgb(32.647705%, 34.495544%, 76.986694%)" offset="0.410156"/><stop stop-opacity="1" stop-color="rgb(32.958984%, 34.547424%, 77.073669%)" offset="0.414062"/><stop stop-opacity="1" stop-color="rgb(33.268738%, 34.599304%, 77.160645%)" offset="0.417969"/><stop stop-opacity="1" stop-color="rgb(33.580017%, 34.65271%, 77.249146%)" offset="0.421875"/><stop stop-opacity="1" stop-color="rgb(33.891296%, 34.70459%, 77.336121%)" offset="0.425781"/><stop stop-opacity="1" stop-color="rgb(34.202576%, 34.75647%, 77.424622%)" offset="0.429688"/><stop stop-opacity="1" stop-color="rgb(34.512329%, 34.80835%, 77.511597%)" offset="0.433594"/><stop stop-opacity="1" stop-color="rgb(34.823608%, 34.861755%, 77.598572%)" offset="0.4375"/><stop stop-opacity="1" stop-color="rgb(35.134888%, 34.913635%, 77.685547%)" offset="0.441406"/><stop stop-opacity="1" stop-color="rgb(35.446167%, 34.967041%, 77.774048%)" offset="0.445312"/><stop stop-opacity="1" stop-color="rgb(35.757446%, 35.018921%, 77.861023%)" offset="0.449219"/><stop stop-opacity="1" stop-color="rgb(36.068726%, 35.070801%, 77.949524%)" offset="0.453125"/><stop stop-opacity="1" stop-color="rgb(36.378479%, 35.122681%, 78.036499%)" offset="0.457031"/><stop stop-opacity="1" stop-color="rgb(36.689758%, 35.176086%, 78.123474%)" offset="0.460938"/><stop stop-opacity="1" stop-color="rgb(37.001038%, 35.227966%, 78.210449%)" offset="0.464844"/><stop stop-opacity="1" stop-color="rgb(37.312317%, 35.279846%, 78.29895%)" offset="0.46875"/><stop stop-opacity="1" stop-color="rgb(37.62207%, 35.331726%, 78.385925%)" offset="0.472656"/><stop stop-opacity="1" stop-color="rgb(37.93335%, 35.385132%, 78.474426%)" offset="0.476562"/><stop stop-opacity="1" stop-color="rgb(38.244629%, 35.437012%, 78.561401%)" offset="0.480469"/><stop stop-opacity="1" stop-color="rgb(38.555908%, 35.490417%, 78.649902%)" offset="0.484375"/><stop stop-opacity="1" stop-color="rgb(38.865662%, 35.542297%, 78.736877%)" offset="0.488281"/><stop stop-opacity="1" stop-color="rgb(39.176941%, 35.594177%, 78.823853%)" offset="0.492188"/><stop stop-opacity="1" stop-color="rgb(39.48822%, 35.646057%, 78.910828%)" offset="0.496094"/><stop stop-opacity="1" stop-color="rgb(39.7995%, 35.699463%, 78.999329%)" offset="0.5"/><stop stop-opacity="1" stop-color="rgb(40.109253%, 35.751343%, 79.086304%)" offset="0.503906"/><stop stop-opacity="1" stop-color="rgb(40.420532%, 35.803223%, 79.174805%)" offset="0.507812"/><stop stop-opacity="1" stop-color="rgb(40.731812%, 35.855103%, 79.26178%)" offset="0.511719"/><stop stop-opacity="1" stop-color="rgb(41.043091%, 35.908508%, 79.348755%)" offset="0.515625"/><stop stop-opacity="1" stop-color="rgb(41.352844%, 35.960388%, 79.43573%)" offset="0.519531"/><stop stop-opacity="1" stop-color="rgb(41.664124%, 36.013794%, 79.524231%)" offset="0.523438"/><stop stop-opacity="1" stop-color="rgb(41.975403%, 36.065674%, 79.611206%)" offset="0.527344"/><stop stop-opacity="1" stop-color="rgb(42.286682%, 36.117554%, 79.699707%)" offset="0.53125"/><stop stop-opacity="1" stop-color="rgb(42.597961%, 36.169434%, 79.786682%)" offset="0.535156"/><stop stop-opacity="1" stop-color="rgb(42.909241%, 36.222839%, 79.873657%)" offset="0.539062"/><stop stop-opacity="1" stop-color="rgb(43.218994%, 36.274719%, 79.960632%)" offset="0.542969"/><stop stop-opacity="1" stop-color="rgb(43.530273%, 36.326599%, 80.049133%)" offset="0.546875"/><stop stop-opacity="1" stop-color="rgb(43.841553%, 36.378479%, 80.136108%)" offset="0.550781"/><stop stop-opacity="1" stop-color="rgb(44.152832%, 36.431885%, 80.224609%)" offset="0.554688"/><stop stop-opacity="1" stop-color="rgb(44.462585%, 36.483765%, 80.311584%)" offset="0.558594"/><stop stop-opacity="1" stop-color="rgb(44.773865%, 36.53717%, 80.39856%)" offset="0.5625"/><stop stop-opacity="1" stop-color="rgb(45.085144%, 36.58905%, 80.485535%)" offset="0.566406"/><stop stop-opacity="1" stop-color="rgb(45.396423%, 36.64093%, 80.574036%)" offset="0.570312"/><stop stop-opacity="1" stop-color="rgb(45.706177%, 36.69281%, 80.661011%)" offset="0.574219"/><stop stop-opacity="1" stop-color="rgb(46.017456%, 36.746216%, 80.749512%)" offset="0.578125"/><stop stop-opacity="1" stop-color="rgb(46.328735%, 36.798096%, 80.836487%)" offset="0.582031"/><stop stop-opacity="1" stop-color="rgb(46.640015%, 36.851501%, 80.924988%)" offset="0.585938"/><stop stop-opacity="1" stop-color="rgb(46.949768%, 36.903381%, 81.011963%)" offset="0.589844"/><stop stop-opacity="1" stop-color="rgb(47.261047%, 36.955261%, 81.098938%)" offset="0.59375"/><stop stop-opacity="1" stop-color="rgb(47.572327%, 37.007141%, 81.185913%)" offset="0.597656"/><stop stop-opacity="1" stop-color="rgb(47.883606%, 37.060547%, 81.274414%)" offset="0.601562"/><stop stop-opacity="1" stop-color="rgb(48.194885%, 37.112427%, 81.361389%)" offset="0.605469"/><stop stop-opacity="1" stop-color="rgb(48.506165%, 37.164307%, 81.44989%)" offset="0.609375"/><stop stop-opacity="1" stop-color="rgb(48.815918%, 37.216187%, 81.536865%)" offset="0.613281"/><stop stop-opacity="1" stop-color="rgb(49.127197%, 37.269592%, 81.62384%)" offset="0.617188"/><stop stop-opacity="1" stop-color="rgb(49.438477%, 37.321472%, 81.710815%)" offset="0.621094"/><stop stop-opacity="1" stop-color="rgb(49.749756%, 37.374878%, 81.799316%)" offset="0.625"/><stop stop-opacity="1" stop-color="rgb(50.059509%, 37.426758%, 81.886292%)" offset="0.628906"/><stop stop-opacity="1" stop-color="rgb(50.370789%, 37.478638%, 81.974792%)" offset="0.632813"/><stop stop-opacity="1" stop-color="rgb(50.682068%, 37.530518%, 82.061768%)" offset="0.636719"/><stop stop-opacity="1" stop-color="rgb(50.993347%, 37.583923%, 82.148743%)" offset="0.640625"/><stop stop-opacity="1" stop-color="rgb(51.303101%, 37.635803%, 82.235718%)" offset="0.644531"/><stop stop-opacity="1" stop-color="rgb(51.61438%, 37.687683%, 82.324219%)" offset="0.648438"/><stop stop-opacity="1" stop-color="rgb(51.925659%, 37.739563%, 82.411194%)" offset="0.652344"/><stop stop-opacity="1" stop-color="rgb(52.236938%, 37.792969%, 82.499695%)" offset="0.65625"/><stop stop-opacity="1" stop-color="rgb(52.546692%, 37.844849%, 82.58667%)" offset="0.660156"/><stop stop-opacity="1" stop-color="rgb(52.857971%, 37.898254%, 82.673645%)" offset="0.664062"/><stop stop-opacity="1" stop-color="rgb(53.16925%, 37.950134%, 82.76062%)" offset="0.667969"/><stop stop-opacity="1" stop-color="rgb(53.48053%, 38.002014%, 82.849121%)" offset="0.671875"/><stop stop-opacity="1" stop-color="rgb(53.791809%, 38.053894%, 82.936096%)" offset="0.675781"/><stop stop-opacity="1" stop-color="rgb(54.103088%, 38.1073%, 83.024597%)" offset="0.679688"/><stop stop-opacity="1" stop-color="rgb(54.412842%, 38.15918%, 83.111572%)" offset="0.683594"/><stop stop-opacity="1" stop-color="rgb(54.724121%, 38.21106%, 83.198547%)" offset="0.6875"/><stop stop-opacity="1" stop-color="rgb(55.0354%, 38.262939%, 83.285522%)" offset="0.691406"/><stop stop-opacity="1" stop-color="rgb(55.34668%, 38.316345%, 83.374023%)" offset="0.695312"/><stop stop-opacity="1" stop-color="rgb(55.656433%, 38.368225%, 83.460999%)" offset="0.699219"/><stop stop-opacity="1" stop-color="rgb(55.967712%, 38.421631%, 83.5495%)" offset="0.703125"/><stop stop-opacity="1" stop-color="rgb(56.278992%, 38.473511%, 83.636475%)" offset="0.707031"/><stop stop-opacity="1" stop-color="rgb(56.590271%, 38.525391%, 83.724976%)" offset="0.710938"/><stop stop-opacity="1" stop-color="rgb(56.900024%, 38.577271%, 83.811951%)" offset="0.714844"/><stop stop-opacity="1" stop-color="rgb(57.211304%, 38.630676%, 83.898926%)" offset="0.71875"/><stop stop-opacity="1" stop-color="rgb(57.522583%, 38.682556%, 83.985901%)" offset="0.722656"/><stop stop-opacity="1" stop-color="rgb(57.833862%, 38.734436%, 84.074402%)" offset="0.726562"/><stop stop-opacity="1" stop-color="rgb(58.143616%, 38.786316%, 84.161377%)" offset="0.730469"/><stop stop-opacity="1" stop-color="rgb(58.454895%, 38.839722%, 84.249878%)" offset="0.734375"/><stop stop-opacity="1" stop-color="rgb(58.766174%, 38.891602%, 84.336853%)" offset="0.738281"/><stop stop-opacity="1" stop-color="rgb(59.077454%, 38.945007%, 84.423828%)" offset="0.742188"/><stop stop-opacity="1" stop-color="rgb(59.387207%, 38.996887%, 84.510803%)" offset="0.746094"/><stop stop-opacity="1" stop-color="rgb(59.698486%, 39.048767%, 84.599304%)" offset="0.75"/><stop stop-opacity="1" stop-color="rgb(60.009766%, 39.100647%, 84.686279%)" offset="0.753906"/><stop stop-opacity="1" stop-color="rgb(60.321045%, 39.154053%, 84.77478%)" offset="0.757813"/><stop stop-opacity="1" stop-color="rgb(60.632324%, 39.205933%, 84.861755%)" offset="0.761719"/><stop stop-opacity="1" stop-color="rgb(60.943604%, 39.259338%, 84.94873%)" offset="0.765625"/><stop stop-opacity="1" stop-color="rgb(61.253357%, 39.311218%, 85.035706%)" offset="0.769531"/><stop stop-opacity="1" stop-color="rgb(61.564636%, 39.363098%, 85.124207%)" offset="0.773438"/><stop stop-opacity="1" stop-color="rgb(61.875916%, 39.414978%, 85.211182%)" offset="0.777344"/><stop stop-opacity="1" stop-color="rgb(62.187195%, 39.468384%, 85.299683%)" offset="0.78125"/><stop stop-opacity="1" stop-color="rgb(62.496948%, 39.520264%, 85.386658%)" offset="0.785156"/><stop stop-opacity="1" stop-color="rgb(62.808228%, 39.572144%, 85.473633%)" offset="0.789062"/><stop stop-opacity="1" stop-color="rgb(63.119507%, 39.624023%, 85.560608%)" offset="0.792969"/><stop stop-opacity="1" stop-color="rgb(63.430786%, 39.677429%, 85.649109%)" offset="0.796875"/><stop stop-opacity="1" stop-color="rgb(63.74054%, 39.729309%, 85.736084%)" offset="0.800781"/><stop stop-opacity="1" stop-color="rgb(64.051819%, 39.782715%, 85.824585%)" offset="0.804688"/><stop stop-opacity="1" stop-color="rgb(64.363098%, 39.834595%, 85.91156%)" offset="0.808594"/><stop stop-opacity="1" stop-color="rgb(64.674377%, 39.886475%, 85.998535%)" offset="0.8125"/><stop stop-opacity="1" stop-color="rgb(64.984131%, 39.938354%, 86.08551%)" offset="0.816406"/><stop stop-opacity="1" stop-color="rgb(65.29541%, 39.99176%, 86.174011%)" offset="0.820312"/><stop stop-opacity="1" stop-color="rgb(65.606689%, 40.04364%, 86.260986%)" offset="0.824219"/><stop stop-opacity="1" stop-color="rgb(65.917969%, 40.09552%, 86.349487%)" offset="0.828125"/><stop stop-opacity="1" stop-color="rgb(66.229248%, 40.1474%, 86.436462%)" offset="0.832031"/><stop stop-opacity="1" stop-color="rgb(66.540527%, 40.200806%, 86.524963%)" offset="0.835938"/><stop stop-opacity="1" stop-color="rgb(66.850281%, 40.252686%, 86.611938%)" offset="0.839844"/><stop stop-opacity="1" stop-color="rgb(67.16156%, 40.306091%, 86.698914%)" offset="0.84375"/><stop stop-opacity="1" stop-color="rgb(67.472839%, 40.357971%, 86.785889%)" offset="0.847656"/><stop stop-opacity="1" stop-color="rgb(67.784119%, 40.409851%, 86.87439%)" offset="0.851562"/><stop stop-opacity="1" stop-color="rgb(68.093872%, 40.461731%, 86.961365%)" offset="0.855469"/><stop stop-opacity="1" stop-color="rgb(68.405151%, 40.515137%, 87.049866%)" offset="0.859375"/><stop stop-opacity="1" stop-color="rgb(68.716431%, 40.567017%, 87.136841%)" offset="0.863281"/><stop stop-opacity="1" stop-color="rgb(69.02771%, 40.618896%, 87.223816%)" offset="0.867188"/><stop stop-opacity="1" stop-color="rgb(69.337463%, 40.670776%, 87.310791%)" offset="0.871094"/><stop stop-opacity="1" stop-color="rgb(69.648743%, 40.724182%, 87.399292%)" offset="0.875"/><stop stop-opacity="1" stop-color="rgb(69.960022%, 40.776062%, 87.486267%)" offset="0.878906"/><stop stop-opacity="1" stop-color="rgb(70.271301%, 40.829468%, 87.574768%)" offset="0.882812"/><stop stop-opacity="1" stop-color="rgb(70.581055%, 40.881348%, 87.661743%)" offset="0.886719"/><stop stop-opacity="1" stop-color="rgb(70.892334%, 40.933228%, 87.748718%)" offset="0.890625"/><stop stop-opacity="1" stop-color="rgb(71.203613%, 40.985107%, 87.835693%)" offset="0.894531"/><stop stop-opacity="1" stop-color="rgb(71.514893%, 41.038513%, 87.924194%)" offset="0.898438"/><stop stop-opacity="1" stop-color="rgb(71.826172%, 41.090393%, 88.011169%)" offset="0.902344"/><stop stop-opacity="1" stop-color="rgb(72.137451%, 41.142273%, 88.09967%)" offset="0.90625"/><stop stop-opacity="1" stop-color="rgb(72.447205%, 41.194153%, 88.186646%)" offset="0.910156"/><stop stop-opacity="1" stop-color="rgb(72.758484%, 41.247559%, 88.273621%)" offset="0.914062"/><stop stop-opacity="1" stop-color="rgb(73.069763%, 41.299438%, 88.360596%)" offset="0.917969"/><stop stop-opacity="1" stop-color="rgb(73.381042%, 41.352844%, 88.449097%)" offset="0.921875"/><stop stop-opacity="1" stop-color="rgb(73.690796%, 41.404724%, 88.536072%)" offset="0.925781"/><stop stop-opacity="1" stop-color="rgb(74.002075%, 41.456604%, 88.624573%)" offset="0.929688"/><stop stop-opacity="1" stop-color="rgb(74.313354%, 41.508484%, 88.711548%)" offset="0.933594"/><stop stop-opacity="1" stop-color="rgb(74.624634%, 41.56189%, 88.798523%)" offset="0.9375"/><stop stop-opacity="1" stop-color="rgb(74.934387%, 41.61377%, 88.885498%)" offset="0.941406"/><stop stop-opacity="1" stop-color="rgb(75.245667%, 41.667175%, 88.973999%)" offset="0.945312"/><stop stop-opacity="1" stop-color="rgb(75.556946%, 41.719055%, 89.060974%)" offset="0.949219"/><stop stop-opacity="1" stop-color="rgb(75.868225%, 41.770935%, 89.149475%)" offset="0.953125"/><stop stop-opacity="1" stop-color="rgb(76.177979%, 41.822815%, 89.23645%)" offset="0.957031"/><stop stop-opacity="1" stop-color="rgb(76.489258%, 41.876221%, 89.324951%)" offset="0.960938"/><stop stop-opacity="1" stop-color="rgb(76.800537%, 41.928101%, 89.411926%)" offset="0.964844"/><stop stop-opacity="1" stop-color="rgb(77.111816%, 41.97998%, 89.498901%)" offset="0.96875"/><stop stop-opacity="1" stop-color="rgb(77.42157%, 42.03186%, 89.585876%)" offset="0.972656"/><stop stop-opacity="1" stop-color="rgb(77.732849%, 42.085266%, 89.674377%)" offset="0.976562"/><stop stop-opacity="1" stop-color="rgb(78.044128%, 42.137146%, 89.761353%)" offset="0.980469"/><stop stop-opacity="1" stop-color="rgb(78.355408%, 42.190552%, 89.849854%)" offset="0.984375"/><stop stop-opacity="1" stop-color="rgb(78.666687%, 42.242432%, 89.936829%)" offset="0.988281"/><stop stop-opacity="1" stop-color="rgb(78.977966%, 42.294312%, 90.023804%)" offset="0.992188"/><stop stop-opacity="1" stop-color="rgb(79.28772%, 42.346191%, 90.110779%)" offset="0.996094"/><stop stop-opacity="1" stop-color="rgb(79.598999%, 42.399597%, 90.19928%)" offset="1"/></linearGradient><clipPath id="28b74a2261"><path d="M 82.097656 64.160156 L 292.847656 64.160156 L 292.847656 197 L 82.097656 197 Z M 82.097656 64.160156 " clip-rule="nonzero"/></clipPath></defs><g clip-path="url(#8ff805c18b)"><rect x="-37.5" fill="url(#1acfb07c92)" width="450" y="-37.499999" height="449.999989"/></g><g clip-path="url(#28b74a2261)"><path fill="#ffffff" d="M 124.269531 64.160156 L 128.378906 64.160156 L 131.722656 64.5 C 131.765625 64.503906 131.808594 64.515625 131.851562 64.535156 C 132.054688 64.636719 132.414062 64.722656 132.941406 64.796875 C 134.910156 65.074219 136.949219 65.851562 139.058594 67.132812 C 142.261719 69.078125 143.042969 72.648438 142.679688 76.207031 C 142.640625 76.621094 142.675781 76.855469 143.035156 77.117188 C 145.273438 78.714844 147.339844 80.453125 149.234375 82.328125 C 149.351562 82.441406 149.492188 82.5 149.648438 82.5 L 224.871094 82.5 C 225.125 82.5 225.339844 82.40625 225.519531 82.226562 C 227.308594 80.402344 229.25 78.757812 231.339844 77.285156 C 231.539062 77.148438 231.636719 76.957031 231.632812 76.71875 C 231.628906 74.964844 231.453125 72.886719 231.957031 71.328125 C 233.804688 65.625 241.894531 64.472656 246.960938 64.160156 L 250.21875 64.160156 C 255.414062 64.617188 262.28125 65.429688 264.488281 71.054688 C 265.136719 72.699219 264.957031 75.050781 265.058594 76.917969 C 265.066406 77.023438 265.109375 77.105469 265.195312 77.167969 C 271.214844 81.605469 275.476562 86.765625 277.8125 93.882812 C 278.226562 95.140625 278.703125 97.15625 279.242188 99.929688 C 283.449219 121.574219 287.683594 143.214844 291.953125 164.847656 C 292.34375 166.839844 292.648438 168.847656 292.867188 170.871094 L 292.867188 173.121094 C 292.105469 184.28125 284.746094 193.703125 273.683594 196.117188 C 272.25 196.433594 270.726562 196.496094 269.222656 196.570312 L 268.523438 196.570312 C 261.523438 196.074219 255.105469 191.890625 251.640625 185.800781 C 245.195312 174.46875 238.84375 163.082031 232.585938 151.636719 C 232.53125 151.542969 232.464844 151.53125 232.386719 151.609375 C 226.796875 156.820312 220.378906 159.289062 212.824219 157.761719 C 206.871094 156.5625 202.140625 152.535156 199.085938 147.425781 C 198.980469 147.242188 198.816406 147.152344 198.605469 147.148438 L 175.300781 147.148438 C 175.136719 147.152344 175.011719 147.21875 174.925781 147.359375 C 170.574219 154.332031 164.1875 158.53125 155.921875 158.148438 C 150.554688 157.898438 145.71875 155.625 142.113281 151.644531 C 142.050781 151.578125 141.976562 151.550781 141.890625 151.558594 C 141.800781 151.570312 141.734375 151.613281 141.691406 151.691406 C 135.355469 163.074219 129.039062 174.449219 122.746094 185.8125 C 116.589844 196.925781 103.101562 199.71875 92.75 192.480469 C 86.617188 188.195312 83.074219 182.300781 82.125 174.800781 L 82.125 170.054688 C 82.285156 168.460938 82.464844 167.148438 82.667969 166.109375 C 86.878906 144.367188 91.0625 122.613281 95.21875 100.859375 C 95.785156 97.898438 96.222656 95.878906 96.539062 94.792969 C 98.609375 87.667969 102.714844 81.9375 108.855469 77.597656 C 109.066406 77.449219 109.171875 77.242188 109.167969 76.980469 C 109.152344 75.808594 109.191406 74.613281 109.289062 73.402344 C 109.878906 65.910156 118.40625 64.683594 124.269531 64.160156 Z M 249.222656 95.613281 C 249.652344 95.554688 250.074219 95.453125 250.484375 95.3125 C 250.898438 95.171875 251.289062 94.988281 251.664062 94.769531 C 252.039062 94.546875 252.390625 94.289062 252.71875 94 C 253.042969 93.707031 253.335938 93.382812 253.601562 93.035156 C 253.863281 92.683594 254.089844 92.308594 254.28125 91.910156 C 254.472656 91.511719 254.621094 91.101562 254.730469 90.671875 C 254.84375 90.246094 254.910156 89.808594 254.9375 89.367188 C 254.964844 88.925781 254.949219 88.484375 254.890625 88.046875 C 254.832031 87.605469 254.730469 87.175781 254.589844 86.757812 C 254.449219 86.335938 254.269531 85.933594 254.046875 85.550781 C 253.828125 85.167969 253.578125 84.808594 253.289062 84.476562 C 253 84.140625 252.683594 83.839844 252.335938 83.570312 C 251.992188 83.300781 251.621094 83.066406 251.230469 82.871094 C 250.839844 82.671875 250.4375 82.519531 250.015625 82.402344 C 249.59375 82.289062 249.167969 82.214844 248.734375 82.1875 C 248.300781 82.15625 247.867188 82.171875 247.4375 82.230469 C 247.007812 82.285156 246.585938 82.386719 246.175781 82.527344 C 245.765625 82.671875 245.371094 82.851562 244.996094 83.074219 C 244.621094 83.292969 244.269531 83.550781 243.945312 83.84375 C 243.617188 84.132812 243.324219 84.457031 243.0625 84.808594 C 242.796875 85.160156 242.570312 85.53125 242.378906 85.929688 C 242.191406 86.328125 242.039062 86.738281 241.929688 87.167969 C 241.816406 87.597656 241.75 88.03125 241.722656 88.472656 C 241.695312 88.914062 241.710938 89.355469 241.769531 89.796875 C 241.828125 90.234375 241.929688 90.664062 242.070312 91.085938 C 242.210938 91.503906 242.394531 91.90625 242.613281 92.289062 C 242.832031 92.671875 243.085938 93.03125 243.371094 93.367188 C 243.660156 93.699219 243.976562 94 244.324219 94.269531 C 244.667969 94.542969 245.039062 94.773438 245.429688 94.96875 C 245.820312 95.167969 246.226562 95.324219 246.644531 95.4375 C 247.066406 95.554688 247.492188 95.625 247.925781 95.65625 C 248.359375 95.683594 248.792969 95.667969 249.222656 95.613281 Z M 111.394531 99.042969 C 111.152344 99.246094 111.03125 99.503906 111.03125 99.816406 L 111.03125 107.21875 C 111.03125 107.339844 111.0625 107.449219 111.125 107.546875 C 111.730469 108.527344 112.453125 108.875 113.664062 108.882812 C 116.324219 108.902344 118.992188 108.917969 121.671875 108.929688 C 121.78125 108.929688 121.835938 108.984375 121.835938 109.09375 L 121.941406 118.605469 C 121.941406 118.667969 121.957031 118.726562 121.996094 118.78125 C 122.59375 119.65625 123.253906 120.011719 124.382812 120.019531 C 125.859375 120.023438 127.328125 120.046875 128.792969 120.089844 C 130.585938 120.140625 132.238281 119.785156 132.199219 117.707031 C 132.144531 114.824219 132.140625 111.945312 132.1875 109.066406 C 132.191406 108.960938 132.242188 108.910156 132.347656 108.90625 C 134.941406 108.835938 137.535156 108.84375 140.128906 108.929688 C 140.730469 108.953125 142.039062 108.597656 142.40625 108.125 C 143.195312 107.105469 142.832031 104.449219 142.828125 103.378906 C 142.820312 101.367188 143.640625 98.402344 140.476562 98.371094 C 137.714844 98.34375 135.019531 98.339844 132.386719 98.355469 C 132.289062 98.359375 132.207031 98.324219 132.136719 98.257812 C 132.066406 98.191406 132.03125 98.109375 132.027344 98.011719 C 131.917969 95.058594 131.859375 92.113281 131.855469 89.175781 C 131.851562 87.707031 130.855469 86.785156 129.425781 86.800781 C 127.570312 86.824219 125.71875 86.851562 123.875 86.882812 C 122.632812 86.902344 121.644531 87.542969 121.574219 88.90625 C 121.4375 91.71875 121.644531 94.140625 121.574219 98.171875 C 121.574219 98.285156 121.519531 98.339844 121.40625 98.339844 C 118.816406 98.363281 116.246094 98.367188 113.699219 98.351562 C 112.765625 98.34375 112.050781 98.496094 111.394531 99.042969 Z M 231.953125 111.660156 C 232.386719 111.652344 232.816406 111.601562 233.242188 111.511719 C 233.667969 111.417969 234.078125 111.28125 234.476562 111.105469 C 234.875 110.933594 235.253906 110.71875 235.609375 110.46875 C 235.96875 110.214844 236.296875 109.933594 236.601562 109.613281 C 236.902344 109.296875 237.171875 108.953125 237.40625 108.582031 C 237.644531 108.210938 237.839844 107.820312 238 107.40625 C 238.160156 106.996094 238.28125 106.574219 238.359375 106.140625 C 238.433594 105.703125 238.472656 105.265625 238.464844 104.824219 C 238.457031 104.382812 238.40625 103.945312 238.316406 103.511719 C 238.226562 103.082031 238.09375 102.660156 237.917969 102.253906 C 237.746094 101.851562 237.539062 101.464844 237.289062 101.101562 C 237.042969 100.738281 236.761719 100.402344 236.453125 100.09375 C 236.140625 99.785156 235.800781 99.511719 235.433594 99.273438 C 235.070312 99.03125 234.6875 98.832031 234.28125 98.667969 C 233.878906 98.507812 233.460938 98.386719 233.035156 98.304688 C 232.605469 98.226562 232.175781 98.1875 231.742188 98.195312 C 231.308594 98.203125 230.878906 98.253906 230.453125 98.347656 C 230.027344 98.4375 229.617188 98.574219 229.21875 98.75 C 228.820312 98.925781 228.441406 99.136719 228.082031 99.386719 C 227.726562 99.640625 227.394531 99.925781 227.09375 100.242188 C 226.792969 100.558594 226.523438 100.902344 226.285156 101.273438 C 226.050781 101.644531 225.855469 102.035156 225.695312 102.449219 C 225.535156 102.859375 225.414062 103.28125 225.335938 103.714844 C 225.257812 104.152344 225.222656 104.589844 225.230469 105.03125 C 225.238281 105.472656 225.285156 105.910156 225.378906 106.34375 C 225.46875 106.773438 225.601562 107.195312 225.773438 107.601562 C 225.949219 108.003906 226.15625 108.390625 226.40625 108.753906 C 226.652344 109.117188 226.929688 109.453125 227.242188 109.761719 C 227.554688 110.070312 227.894531 110.34375 228.257812 110.582031 C 228.625 110.824219 229.007812 111.023438 229.414062 111.1875 C 229.816406 111.351562 230.234375 111.472656 230.660156 111.550781 C 231.085938 111.628906 231.519531 111.667969 231.953125 111.660156 Z M 265.25 111.695312 C 265.683594 111.691406 266.113281 111.644531 266.539062 111.554688 C 266.96875 111.460938 267.378906 111.332031 267.78125 111.15625 C 268.183594 110.984375 268.5625 110.773438 268.921875 110.523438 C 269.28125 110.273438 269.613281 109.992188 269.917969 109.675781 C 270.222656 109.359375 270.496094 109.015625 270.734375 108.644531 C 270.972656 108.273438 271.175781 107.882812 271.335938 107.46875 C 271.5 107.058594 271.621094 106.632812 271.703125 106.199219 C 271.785156 105.761719 271.824219 105.324219 271.820312 104.878906 C 271.816406 104.4375 271.769531 103.996094 271.679688 103.5625 C 271.589844 103.128906 271.460938 102.707031 271.292969 102.296875 C 271.121094 101.890625 270.914062 101.5 270.667969 101.136719 C 270.425781 100.769531 270.144531 100.429688 269.835938 100.117188 C 269.523438 99.808594 269.1875 99.53125 268.824219 99.285156 C 268.460938 99.042969 268.074219 98.839844 267.671875 98.671875 C 267.269531 98.507812 266.851562 98.382812 266.425781 98.296875 C 265.996094 98.214844 265.566406 98.175781 265.128906 98.179688 C 264.695312 98.183594 264.265625 98.230469 263.839844 98.320312 C 263.414062 98.410156 263 98.542969 262.597656 98.714844 C 262.199219 98.890625 261.816406 99.101562 261.457031 99.351562 C 261.097656 99.601562 260.765625 99.882812 260.460938 100.199219 C 260.15625 100.515625 259.882812 100.859375 259.644531 101.230469 C 259.40625 101.601562 259.203125 101.992188 259.042969 102.40625 C 258.878906 102.816406 258.757812 103.238281 258.675781 103.675781 C 258.59375 104.113281 258.554688 104.550781 258.558594 104.996094 C 258.5625 105.4375 258.609375 105.878906 258.699219 106.3125 C 258.789062 106.746094 258.917969 107.167969 259.085938 107.578125 C 259.257812 107.984375 259.464844 108.371094 259.710938 108.738281 C 259.953125 109.105469 260.234375 109.445312 260.542969 109.757812 C 260.855469 110.066406 261.191406 110.34375 261.554688 110.585938 C 261.917969 110.832031 262.304688 111.035156 262.707031 111.203125 C 263.109375 111.367188 263.527344 111.492188 263.953125 111.574219 C 264.382812 111.660156 264.8125 111.699219 265.25 111.695312 Z M 211.34375 106.277344 C 211.339844 105.921875 211.273438 105.578125 211.136719 105.25 C 211 104.917969 210.804688 104.628906 210.550781 104.378906 C 210.296875 104.125 210.007812 103.933594 209.679688 103.796875 C 209.347656 103.660156 209.003906 103.59375 208.648438 103.59375 L 200.386719 103.609375 C 200.03125 103.609375 199.6875 103.675781 199.359375 103.8125 C 199.027344 103.953125 198.738281 104.144531 198.488281 104.398438 C 198.234375 104.652344 198.042969 104.941406 197.90625 105.273438 C 197.769531 105.601562 197.703125 105.945312 197.703125 106.300781 L 197.703125 106.542969 C 197.703125 106.898438 197.773438 107.242188 197.910156 107.570312 C 198.046875 107.902344 198.242188 108.191406 198.496094 108.445312 C 198.746094 108.695312 199.039062 108.890625 199.367188 109.023438 C 199.695312 109.160156 200.039062 109.226562 200.398438 109.226562 L 208.660156 109.214844 C 209.015625 109.210938 209.359375 109.144531 209.6875 109.007812 C 210.015625 108.871094 210.304688 108.675781 210.558594 108.421875 C 210.808594 108.167969 211.003906 107.878906 211.140625 107.550781 C 211.277344 107.21875 211.34375 106.875 211.34375 106.519531 Z M 165.585938 103.707031 C 162.796875 103.757812 162.230469 107.40625 164.34375 108.742188 C 164.835938 109.050781 165.644531 109.210938 166.769531 109.21875 C 169.21875 109.238281 171.664062 109.214844 174.113281 109.152344 C 177.746094 109.058594 177.394531 103.621094 174.050781 103.625 C 171.226562 103.628906 168.40625 103.65625 165.585938 103.707031 Z M 249.5 114.257812 C 245.402344 113.429688 241.222656 117.109375 241.695312 121.40625 C 242.109375 125.191406 245.09375 128.066406 249.09375 127.664062 C 256.5625 126.917969 257.121094 115.800781 249.5 114.257812 Z M 158.660156 120 C 151.359375 118.703125 144.4375 124.679688 143.988281 131.90625 C 143.550781 138.949219 148.578125 145.082031 155.714844 145.691406 C 164.679688 146.457031 171.628906 137.746094 169.046875 129.105469 C 167.605469 124.277344 163.570312 120.871094 158.660156 120 Z M 204.359375 131.296875 C 203.085938 142.835938 216.609375 150.382812 225.546875 142.539062 C 233.953125 135.160156 229.609375 121.230469 218.515625 119.929688 C 211.558594 119.113281 205.136719 124.273438 204.359375 131.296875 Z M 204.359375 131.296875 " fill-opacity="1" fill-rule="nonzero"/></g><g fill="#ffffff" fill-opacity="1"><g transform="translate(121.062937, 308.672167)"><g><path d="M 122.125 -100.734375 L 110.96875 -100.734375 C 109.953125 -100.734375 109.046875 -100.328125 108.234375 -99.71875 C 107.421875 -99.109375 106.8125 -98.296875 106.515625 -97.296875 L 89.28125 -37.796875 C 88.984375 -36.890625 88.375 -36.484375 87.5625 -36.484375 C 86.65625 -36.484375 86.046875 -36.890625 85.84375 -37.796875 L 78.140625 -63.140625 C 77.625 -64.5625 76.8125 -65.765625 75.609375 -66.6875 C 74.390625 -67.5 72.96875 -68 71.453125 -68 L 61.421875 -68 C 59.796875 -68 58.46875 -67.5 57.265625 -66.6875 C 56.046875 -65.765625 55.125 -64.5625 54.71875 -63.140625 L 47.03125 -37.796875 C 46.71875 -36.890625 46.109375 -36.484375 45.296875 -36.484375 C 44.390625 -36.484375 43.78125 -36.890625 43.578125 -37.796875 L 26.453125 -97.296875 C 26.046875 -98.296875 25.53125 -99.109375 24.734375 -99.71875 C 23.921875 -100.328125 22.90625 -100.734375 21.890625 -100.734375 L 10.75 -100.734375 C 9.125 -100.734375 7.90625 -100.03125 7 -98.8125 C 5.984375 -97.59375 5.78125 -96.171875 6.28125 -94.75 L 32.625 -3.453125 C 32.9375 -2.4375 33.546875 -1.515625 34.359375 -0.90625 C 35.171875 -0.296875 36.078125 0 37.1875 0 L 53.515625 0 C 54.515625 0 55.4375 -0.296875 56.25 -0.90625 C 57.0625 -1.515625 57.5625 -2.4375 57.96875 -3.453125 L 64.765625 -26.75 C 64.96875 -27.5625 65.5625 -28.078125 66.484375 -28.078125 C 67.296875 -28.078125 67.90625 -27.5625 68.203125 -26.75 L 74.890625 -3.453125 C 75.203125 -2.4375 75.8125 -1.515625 76.609375 -0.90625 C 77.421875 -0.296875 78.34375 0 79.453125 0 L 95.765625 0 C 96.78125 0 97.6875 -0.296875 98.5 -0.90625 C 99.3125 -1.515625 99.921875 -2.4375 100.234375 -3.453125 L 126.671875 -94.75 C 127.078125 -96.171875 126.78125 -97.59375 125.875 -98.8125 C 124.859375 -100.03125 123.640625 -100.734375 122.125 -100.734375 Z M 122.125 -100.734375 "/></g></g></g></svg>